<svg xmlns="http://www.w3.org/2000/svg" width="1440" height="900"><path d="M791,515L813,601L891,563Z" fill="#808080" stroke="#808080" stroke-width="1.51"/><path d="M962,715L995,567L891,563Z" fill="#717171" stroke="#717171" stroke-width="1.51"/><path d="M791,515L765,649L813,601Z" fill="#818181" stroke="#818181" stroke-width="1.51"/><path d="M891,563L945,455L791,515Z" fill="#828282" stroke="#828282" stroke-width="1.51"/><path d="M891,563L995,567L945,455Z" fill="#7b7b7b" stroke="#7b7b7b" stroke-width="1.51"/><path d="M962,715L891,563L813,601Z" fill="#757575" stroke="#757575" stroke-width="1.51"/><path d="M791,515L612,532L765,649Z" fill="#898989" stroke="#898989" stroke-width="1.51"/><path d="M785,348L695,456L791,515Z" fill="#949494" stroke="#949494" stroke-width="1.51"/><path d="M765,649L798,727L813,601Z" fill="#797979" stroke="#797979" stroke-width="1.51"/><path d="M995,567L1017,528L945,455Z" fill="#7a7a7a" stroke="#7a7a7a" stroke-width="1.51"/><path d="M945,455L785,348L791,515Z" fill="#8e8e8e" stroke="#8e8e8e" stroke-width="1.51"/><path d="M798,727L962,715L813,601Z" fill="#717171" stroke="#717171" stroke-width="1.51"/><path d="M995,567L1137,569L1017,528Z" fill="#717171" stroke="#717171" stroke-width="1.51"/><path d="M589,725L766,756L765,649Z" fill="#7a7a7a" stroke="#7a7a7a" stroke-width="1.51"/><path d="M785,348L676,409L695,456Z" fill="#9b9b9b" stroke="#9b9b9b" stroke-width="1.51"/><path d="M765,649L766,756L798,727Z" fill="#757575" stroke="#757575" stroke-width="1.51"/><path d="M798,727L857,793L962,715Z" fill="#6a6a6a" stroke="#6a6a6a" stroke-width="1.51"/><path d="M612,532L791,515L695,456Z" fill="#929292" stroke="#929292" stroke-width="1.51"/><path d="M648,402L612,532L695,456Z" fill="#9a9a9a" stroke="#9a9a9a" stroke-width="1.51"/><path d="M945,455L961,349L785,348Z" fill="#909090" stroke="#909090" stroke-width="1.51"/><path d="M1079,406L961,349L945,455Z" fill="#868686" stroke="#868686" stroke-width="1.51"/><path d="M676,409L648,402L695,456Z" fill="#9d9d9d" stroke="#9d9d9d" stroke-width="1.51"/><path d="M693,292L648,402L676,409Z" fill="#a4a4a4" stroke="#a4a4a4" stroke-width="1.51"/><path d="M766,756L857,793L798,727Z" fill="#6d6d6d" stroke="#6d6d6d" stroke-width="1.51"/><path d="M612,532L577,586L765,649Z" fill="#8c8c8c" stroke="#8c8c8c" stroke-width="1.51"/><path d="M510,587L577,586L507,508Z" fill="#999999" stroke="#999999" stroke-width="1.51"/><path d="M962,715L1058,697L995,567Z" fill="#696969" stroke="#696969" stroke-width="1.51"/><path d="M1066,851L1058,697L962,715Z" fill="#5d5d5d" stroke="#5d5d5d" stroke-width="1.51"/><path d="M961,349L803,265L785,348Z" fill="#9b9b9b" stroke="#9b9b9b" stroke-width="1.51"/><path d="M999,278L964,308L961,349Z" fill="#929292" stroke="#929292" stroke-width="1.51"/><path d="M1079,406L945,455L1017,528Z" fill="#7d7d7d" stroke="#7d7d7d" stroke-width="1.51"/><path d="M1093,414L1079,406L1017,528Z" fill="#7b7b7b" stroke="#7b7b7b" stroke-width="1.51"/><path d="M785,348L693,292L676,409Z" fill="#a2a2a2" stroke="#a2a2a2" stroke-width="1.51"/><path d="M964,308L803,265L961,349Z" fill="#989898" stroke="#989898" stroke-width="1.51"/><path d="M1079,406L999,278L961,349Z" fill="#8c8c8c" stroke="#8c8c8c" stroke-width="1.51"/><path d="M1137,569L1093,414L1017,528Z" fill="#747474" stroke="#747474" stroke-width="1.51"/><path d="M803,265L693,292L785,348Z" fill="#a5a5a5" stroke="#a5a5a5" stroke-width="1.51"/><path d="M1058,697L1137,569L995,567Z" fill="#696969" stroke="#696969" stroke-width="1.51"/><path d="M577,586L589,725L765,649Z" fill="#858585" stroke="#858585" stroke-width="1.51"/><path d="M766,756L705,839L857,793Z" fill="#6a6a6a" stroke="#6a6a6a" stroke-width="1.51"/><path d="M964,308L897,205L803,265Z" fill="#9f9f9f" stroke="#9f9f9f" stroke-width="1.51"/><path d="M1132,329L999,278L1079,406Z" fill="#888888" stroke="#888888" stroke-width="1.51"/><path d="M664,823L705,839L766,756Z" fill="#6d6d6d" stroke="#6d6d6d" stroke-width="1.51"/><path d="M857,793L883,868L962,715Z" fill="#616161" stroke="#616161" stroke-width="1.51"/><path d="M834,904L883,868L857,793Z" fill="#5b5b5b" stroke="#5b5b5b" stroke-width="1.51"/><path d="M589,725L664,823L766,756Z" fill="#767676" stroke="#767676" stroke-width="1.51"/><path d="M693,292L633,292L648,402Z" fill="#aaaaaa" stroke="#aaaaaa" stroke-width="1.51"/><path d="M507,508L577,586L612,532Z" fill="#999999" stroke="#999999" stroke-width="1.51"/><path d="M628,224L633,292L693,292Z" fill="#b1b1b1" stroke="#b1b1b1" stroke-width="1.51"/><path d="M577,586L512,702L589,725Z" fill="#8b8b8b" stroke="#8b8b8b" stroke-width="1.51"/><path d="M507,508L612,532L648,402Z" fill="#9e9e9e" stroke="#9e9e9e" stroke-width="1.51"/><path d="M541,369L507,508L648,402Z" fill="#a6a6a6" stroke="#a6a6a6" stroke-width="1.51"/><path d="M633,292L541,369L648,402Z" fill="#ababab" stroke="#ababab" stroke-width="1.51"/><path d="M999,278L897,205L964,308Z" fill="#999999" stroke="#999999" stroke-width="1.51"/><path d="M701,148L628,224L693,292Z" fill="#b3b3b3" stroke="#b3b3b3" stroke-width="1.51"/><path d="M902,962L834,904L867,1037Z" fill="#4b4b4b" stroke="#4b4b4b" stroke-width="1.51"/><path d="M705,839L834,904L857,793Z" fill="#616161" stroke="#616161" stroke-width="1.51"/><path d="M1137,569L1181,453L1093,414Z" fill="#727272" stroke="#727272" stroke-width="1.51"/><path d="M1093,414L1132,329L1079,406Z" fill="#808080" stroke="#808080" stroke-width="1.51"/><path d="M589,725L504,814L664,823Z" fill="#7a7a7a" stroke="#7a7a7a" stroke-width="1.51"/><path d="M510,587L512,702L577,586Z" fill="#929292" stroke="#929292" stroke-width="1.51"/><path d="M420,598L512,702L510,587Z" fill="#959595" stroke="#959595" stroke-width="1.51"/><path d="M1213,420L1132,329L1093,414Z" fill="#7c7c7c" stroke="#7c7c7c" stroke-width="1.51"/><path d="M999,278L1039,200L897,205Z" fill="#9a9a9a" stroke="#9a9a9a" stroke-width="1.51"/><path d="M541,369L450,418L507,508Z" fill="#ababab" stroke="#ababab" stroke-width="1.51"/><path d="M633,292L535,328L541,369Z" fill="#b2b2b2" stroke="#b2b2b2" stroke-width="1.51"/><path d="M883,868L1066,851L962,715Z" fill="#595959" stroke="#595959" stroke-width="1.51"/><path d="M1058,697L1190,700L1137,569Z" fill="#606060" stroke="#606060" stroke-width="1.51"/><path d="M1137,569L1291,492L1181,453Z" fill="#696969" stroke="#696969" stroke-width="1.51"/><path d="M1076,899L1066,851L883,868Z" fill="#4d4d4d" stroke="#4d4d4d" stroke-width="1.51"/><path d="M1180,845L1190,700L1058,697Z" fill="#565656" stroke="#565656" stroke-width="1.51"/><path d="M633,292L628,224L535,328Z" fill="#b5b5b5" stroke="#b5b5b5" stroke-width="1.51"/><path d="M701,148L693,292L803,265Z" fill="#adadad" stroke="#adadad" stroke-width="1.51"/><path d="M1190,700L1219,647L1137,569Z" fill="#5d5d5d" stroke="#5d5d5d" stroke-width="1.51"/><path d="M1291,492L1213,420L1181,453Z" fill="#6c6c6c" stroke="#6c6c6c" stroke-width="1.51"/><path d="M1181,453L1213,420L1093,414Z" fill="#767676" stroke="#767676" stroke-width="1.51"/><path d="M897,205L777,151L803,265Z" fill="#a8a8a8" stroke="#a8a8a8" stroke-width="1.51"/><path d="M1101,197L999,278L1132,329Z" fill="#8e8e8e" stroke="#8e8e8e" stroke-width="1.51"/><path d="M1101,197L1039,200L999,278Z" fill="#959595" stroke="#959595" stroke-width="1.51"/><path d="M897,205L950,108L777,151Z" fill="#a8a8a8" stroke="#a8a8a8" stroke-width="1.51"/><path d="M535,328L450,418L541,369Z" fill="#b2b2b2" stroke="#b2b2b2" stroke-width="1.51"/><path d="M507,508L420,598L510,587Z" fill="#9d9d9d" stroke="#9d9d9d" stroke-width="1.51"/><path d="M348,365L450,418L404,253Z" fill="#bcbcbc" stroke="#bcbcbc" stroke-width="1.51"/><path d="M834,904L902,962L883,868Z" fill="#515151" stroke="#515151" stroke-width="1.51"/><path d="M684,956L834,904L705,839Z" fill="#5c5c5c" stroke="#5c5c5c" stroke-width="1.51"/><path d="M397,472L420,598L507,508Z" fill="#a4a4a4" stroke="#a4a4a4" stroke-width="1.51"/><path d="M777,151L701,148L803,265Z" fill="#afafaf" stroke="#afafaf" stroke-width="1.51"/><path d="M1180,845L1226,779L1190,700Z" fill="#4d4d4d" stroke="#4d4d4d" stroke-width="1.51"/><path d="M902,962L1076,899L883,868Z" fill="#4c4c4c" stroke="#4c4c4c" stroke-width="1.51"/><path d="M512,702L504,814L589,725Z" fill="#848484" stroke="#848484" stroke-width="1.51"/><path d="M664,823L684,956L705,839Z" fill="#656565" stroke="#656565" stroke-width="1.51"/><path d="M374,803L504,814L512,702Z" fill="#868686" stroke="#868686" stroke-width="1.51"/><path d="M661,966L684,956L664,823Z" fill="#606060" stroke="#606060" stroke-width="1.51"/><path d="M1039,200L950,108L897,205Z" fill="#a0a0a0" stroke="#a0a0a0" stroke-width="1.51"/><path d="M1250,217L1101,197L1132,329Z" fill="#8a8a8a" stroke="#8a8a8a" stroke-width="1.51"/><path d="M450,418L397,472L507,508Z" fill="#aaaaaa" stroke="#aaaaaa" stroke-width="1.51"/><path d="M348,365L397,472L450,418Z" fill="#b3b3b3" stroke="#b3b3b3" stroke-width="1.51"/><path d="M733,1053L867,1037L834,904Z" fill="#4b4b4b" stroke="#4b4b4b" stroke-width="1.51"/><path d="M504,814L661,966L664,823Z" fill="#6c6c6c" stroke="#6c6c6c" stroke-width="1.51"/><path d="M1190,700L1252,758L1219,647Z" fill="#535353" stroke="#535353" stroke-width="1.51"/><path d="M1219,647L1291,492L1137,569Z" fill="#616161" stroke="#616161" stroke-width="1.51"/><path d="M1180,845L1058,697L1066,851Z" fill="#525252" stroke="#525252" stroke-width="1.51"/><path d="M1179,875L1180,845L1066,851Z" fill="#464646" stroke="#464646" stroke-width="1.51"/><path d="M990,61L950,108L1039,200Z" fill="#a2a2a2" stroke="#a2a2a2" stroke-width="1.51"/><path d="M777,151L795,46L701,148Z" fill="#b5b5b5" stroke="#b5b5b5" stroke-width="1.51"/><path d="M1378,628L1291,492L1219,647Z" fill="#565656" stroke="#565656" stroke-width="1.51"/><path d="M1213,420L1267,287L1132,329Z" fill="#7b7b7b" stroke="#7b7b7b" stroke-width="1.51"/><path d="M1226,779L1252,758L1190,700Z" fill="#4e4e4e" stroke="#4e4e4e" stroke-width="1.51"/><path d="M1289,918L1252,758L1226,779Z" fill="#414141" stroke="#414141" stroke-width="1.51"/><path d="M420,598L385,684L512,702Z" fill="#959595" stroke="#959595" stroke-width="1.51"/><path d="M331,604L385,684L420,598Z" fill="#9c9c9c" stroke="#9c9c9c" stroke-width="1.51"/><path d="M1291,492L1302,475L1213,420Z" fill="#666666" stroke="#666666" stroke-width="1.51"/><path d="M1364,428L1302,475L1442,469Z" fill="#5c5c5c" stroke="#5c5c5c" stroke-width="1.51"/><path d="M1154,1060L1179,875L1076,899Z" fill="#3b3b3b" stroke="#3b3b3b" stroke-width="1.51"/><path d="M1076,899L1179,875L1066,851Z" fill="#464646" stroke="#464646" stroke-width="1.51"/><path d="M1180,845L1289,918L1226,779Z" fill="#3f3f3f" stroke="#3f3f3f" stroke-width="1.51"/><path d="M661,966L733,1053L684,956Z" fill="#555555" stroke="#555555" stroke-width="1.51"/><path d="M471,915L639,995L661,966Z" fill="#606060" stroke="#606060" stroke-width="1.51"/><path d="M471,915L661,966L504,814Z" fill="#6c6c6c" stroke="#6c6c6c" stroke-width="1.51"/><path d="M902,962L1037,996L1076,899Z" fill="#434343" stroke="#434343" stroke-width="1.51"/><path d="M733,1053L834,904L684,956Z" fill="#535353" stroke="#535353" stroke-width="1.51"/><path d="M925,1059L1037,996L902,962Z" fill="#414141" stroke="#414141" stroke-width="1.51"/><path d="M628,224L547,146L535,328Z" fill="#bbbbbb" stroke="#bbbbbb" stroke-width="1.51"/><path d="M701,148L547,146L628,224Z" fill="#bcbcbc" stroke="#bcbcbc" stroke-width="1.51"/><path d="M670,51L547,146L701,148Z" fill="#c0c0c0" stroke="#c0c0c0" stroke-width="1.51"/><path d="M1364,428L1267,287L1213,420Z" fill="#6f6f6f" stroke="#6f6f6f" stroke-width="1.51"/><path d="M1101,197L990,61L1039,200Z" fill="#9b9b9b" stroke="#9b9b9b" stroke-width="1.51"/><path d="M950,108L795,46L777,151Z" fill="#afafaf" stroke="#afafaf" stroke-width="1.51"/><path d="M252,460L331,604L397,472Z" fill="#acacac" stroke="#acacac" stroke-width="1.51"/><path d="M397,472L331,604L420,598Z" fill="#a4a4a4" stroke="#a4a4a4" stroke-width="1.51"/><path d="M950,108L919,23L795,46Z" fill="#afafaf" stroke="#afafaf" stroke-width="1.51"/><path d="M1180,119L990,61L1101,197Z" fill="#999999" stroke="#999999" stroke-width="1.51"/><path d="M639,995L733,1053L661,966Z" fill="#555555" stroke="#555555" stroke-width="1.51"/><path d="M331,604L347,709L385,684Z" fill="#999999" stroke="#999999" stroke-width="1.51"/><path d="M385,684L374,803L512,702Z" fill="#8e8e8e" stroke="#8e8e8e" stroke-width="1.51"/><path d="M639,995L689,1091L733,1053Z" fill="#505050" stroke="#505050" stroke-width="1.51"/><path d="M428,918L471,915L504,814Z" fill="#747474" stroke="#747474" stroke-width="1.51"/><path d="M867,1037L925,1059L902,962Z" fill="#434343" stroke="#434343" stroke-width="1.51"/><path d="M889,1174L925,1059L867,1037Z" fill="#3d3d3d" stroke="#3d3d3d" stroke-width="1.51"/><path d="M1389,785L1321,732L1252,758Z" fill="#424242" stroke="#424242" stroke-width="1.51"/><path d="M1252,758L1321,732L1219,647Z" fill="#4d4d4d" stroke="#4d4d4d" stroke-width="1.51"/><path d="M404,253L450,418L535,328Z" fill="#bababa" stroke="#bababa" stroke-width="1.51"/><path d="M424,193L404,253L535,328Z" fill="#c2c2c2" stroke="#c2c2c2" stroke-width="1.51"/><path d="M795,46L670,51L701,148Z" fill="#bbbbbb" stroke="#bbbbbb" stroke-width="1.51"/><path d="M547,146L424,193L535,328Z" fill="#c2c2c2" stroke="#c2c2c2" stroke-width="1.51"/><path d="M347,709L374,803L385,684Z" fill="#919191" stroke="#919191" stroke-width="1.51"/><path d="M1267,287L1250,217L1132,329Z" fill="#818181" stroke="#818181" stroke-width="1.51"/><path d="M990,61L919,23L950,108Z" fill="#a9a9a9" stroke="#a9a9a9" stroke-width="1.51"/><path d="M639,-2L629,36L670,51Z" fill="#c5c5c5" stroke="#c5c5c5" stroke-width="1.51"/><path d="M1302,475L1364,428L1213,420Z" fill="#666666" stroke="#666666" stroke-width="1.51"/><path d="M1267,287L1302,162L1250,217Z" fill="#7f7f7f" stroke="#7f7f7f" stroke-width="1.51"/><path d="M1442,469L1302,475L1291,492Z" fill="#5d5d5d" stroke="#5d5d5d" stroke-width="1.51"/><path d="M404,253L347,258L348,365Z" fill="#c5c5c5" stroke="#c5c5c5" stroke-width="1.51"/><path d="M418,106L424,193L547,146Z" fill="#cbcbcb" stroke="#cbcbcb" stroke-width="1.51"/><path d="M1321,732L1378,628L1219,647Z" fill="#4d4d4d" stroke="#4d4d4d" stroke-width="1.51"/><path d="M374,803L428,918L504,814Z" fill="#7c7c7c" stroke="#7c7c7c" stroke-width="1.51"/><path d="M488,1033L607,1089L639,995Z" fill="#595959" stroke="#595959" stroke-width="1.51"/><path d="M1250,217L1180,119L1101,197Z" fill="#8e8e8e" stroke="#8e8e8e" stroke-width="1.51"/><path d="M990,61L1049,-17L919,23Z" fill="#a9a9a9" stroke="#a9a9a9" stroke-width="1.51"/><path d="M670,51L629,36L547,146Z" fill="#c4c4c4" stroke="#c4c4c4" stroke-width="1.51"/><path d="M639,-2L670,51L766,-40Z" fill="#c3c3c3" stroke="#c3c3c3" stroke-width="1.51"/><path d="M733,1053L778,1136L867,1037Z" fill="#444444" stroke="#444444" stroke-width="1.51"/><path d="M607,1089L689,1091L639,995Z" fill="#515151" stroke="#515151" stroke-width="1.51"/><path d="M629,36L534,67L547,146Z" fill="#c8c8c8" stroke="#c8c8c8" stroke-width="1.51"/><path d="M424,193L347,258L404,253Z" fill="#c8c8c8" stroke="#c8c8c8" stroke-width="1.51"/><path d="M348,365L252,460L397,472Z" fill="#b5b5b5" stroke="#b5b5b5" stroke-width="1.51"/><path d="M308,145L347,258L424,193Z" fill="#cecece" stroke="#cecece" stroke-width="1.51"/><path d="M869,-106L804,-50L919,23Z" fill="#b7b7b7" stroke="#b7b7b7" stroke-width="1.51"/><path d="M1250,217L1222,130L1180,119Z" fill="#8b8b8b" stroke="#8b8b8b" stroke-width="1.51"/><path d="M1302,162L1222,130L1250,217Z" fill="#858585" stroke="#858585" stroke-width="1.51"/><path d="M1321,732L1428,705L1378,628Z" fill="#444444" stroke="#444444" stroke-width="1.51"/><path d="M1179,875L1289,918L1180,845Z" fill="#3c3c3c" stroke="#3c3c3c" stroke-width="1.51"/><path d="M1154,1060L1289,918L1179,875Z" fill="#343434" stroke="#343434" stroke-width="1.51"/><path d="M1154,1060L1076,899L1037,996Z" fill="#393939" stroke="#393939" stroke-width="1.51"/><path d="M766,-40L670,51L795,46Z" fill="#bdbdbd" stroke="#bdbdbd" stroke-width="1.51"/><path d="M629,36L546,-54L534,67Z" fill="#cdcdcd" stroke="#cdcdcd" stroke-width="1.51"/><path d="M488,1033L639,995L471,915Z" fill="#636363" stroke="#636363" stroke-width="1.51"/><path d="M925,1059L1006,1111L1037,996Z" fill="#393939" stroke="#393939" stroke-width="1.51"/><path d="M889,1174L1006,1111L925,1059Z" fill="#3a3a3a" stroke="#3a3a3a" stroke-width="1.51"/><path d="M778,1136L733,1053L689,1091Z" fill="#484848" stroke="#484848" stroke-width="1.51"/><path d="M520,1148L778,1136L689,1091Z" fill="#4d4d4d" stroke="#4d4d4d" stroke-width="1.51"/><path d="M214,454L252,460L178,407Z" fill="#bbbbbb" stroke="#bbbbbb" stroke-width="1.51"/><path d="M331,604L220,682L347,709Z" fill="#9d9d9d" stroke="#9d9d9d" stroke-width="1.51"/><path d="M347,709L258,831L374,803Z" fill="#8d8d8d" stroke="#8d8d8d" stroke-width="1.51"/><path d="M804,-50L766,-40L795,46Z" fill="#bcbcbc" stroke="#bcbcbc" stroke-width="1.51"/><path d="M804,-50L795,46L919,23Z" fill="#b6b6b6" stroke="#b6b6b6" stroke-width="1.51"/><path d="M428,918L488,1033L471,915Z" fill="#6a6a6a" stroke="#6a6a6a" stroke-width="1.51"/><path d="M1049,-17L990,61L1180,119Z" fill="#a0a0a0" stroke="#a0a0a0" stroke-width="1.51"/><path d="M1289,918L1389,785L1252,758Z" fill="#3b3b3b" stroke="#3b3b3b" stroke-width="1.51"/><path d="M1482,401L1395,321L1364,428Z" fill="#606060" stroke="#606060" stroke-width="1.51"/><path d="M1006,1111L1154,1060L1037,996Z" fill="#343434" stroke="#343434" stroke-width="1.51"/><path d="M1364,428L1395,321L1267,287Z" fill="#6b6b6b" stroke="#6b6b6b" stroke-width="1.51"/><path d="M1442,469L1291,492L1378,628Z" fill="#545454" stroke="#545454" stroke-width="1.51"/><path d="M1091,-36L1049,-17L1180,119Z" fill="#9f9f9f" stroke="#9f9f9f" stroke-width="1.51"/><path d="M1395,321L1302,162L1267,287Z" fill="#767676" stroke="#767676" stroke-width="1.51"/><path d="M1227,-70L1091,-36L1180,119Z" fill="#9b9b9b" stroke="#9b9b9b" stroke-width="1.51"/><path d="M369,-46L418,106L534,67Z" fill="#d5d5d5" stroke="#d5d5d5" stroke-width="1.51"/><path d="M534,67L418,106L547,146Z" fill="#cccccc" stroke="#cccccc" stroke-width="1.51"/><path d="M243,324L252,460L348,365Z" fill="#bfbfbf" stroke="#bfbfbf" stroke-width="1.51"/><path d="M1494,585L1442,469L1378,628Z" fill="#4b4b4b" stroke="#4b4b4b" stroke-width="1.51"/><path d="M1389,785L1428,705L1321,732Z" fill="#3e3e3e" stroke="#3e3e3e" stroke-width="1.51"/><path d="M1212,1171L1248,1071L1154,1060Z" fill="#272727" stroke="#272727" stroke-width="1.51"/><path d="M778,1136L889,1174L867,1037Z" fill="#404040" stroke="#404040" stroke-width="1.51"/><path d="M520,1148L889,1174L778,1136Z" fill="#494949" stroke="#494949" stroke-width="1.51"/><path d="M191,657L220,682L331,604Z" fill="#a1a1a1" stroke="#a1a1a1" stroke-width="1.51"/><path d="M243,324L348,365L347,258Z" fill="#c5c5c5" stroke="#c5c5c5" stroke-width="1.51"/><path d="M191,657L331,604L252,460Z" fill="#a9a9a9" stroke="#a9a9a9" stroke-width="1.51"/><path d="M374,803L268,924L428,918Z" fill="#7a7a7a" stroke="#7a7a7a" stroke-width="1.51"/><path d="M428,918L374,1067L488,1033Z" fill="#666666" stroke="#666666" stroke-width="1.51"/><path d="M308,145L243,324L347,258Z" fill="#cecece" stroke="#cecece" stroke-width="1.51"/><path d="M1227,-70L1180,119L1222,130Z" fill="#939393" stroke="#939393" stroke-width="1.51"/><path d="M918,-113L869,-106L919,23Z" fill="#b5b5b5" stroke="#b5b5b5" stroke-width="1.51"/><path d="M1389,785L1504,772L1428,705Z" fill="#383838" stroke="#383838" stroke-width="1.51"/><path d="M1289,918L1337,951L1389,785Z" fill="#2f2f2f" stroke="#2f2f2f" stroke-width="1.51"/><path d="M1248,1071L1337,951L1289,918Z" fill="#292929" stroke="#292929" stroke-width="1.51"/><path d="M804,-50L729,-84L766,-40Z" fill="#c0c0c0" stroke="#c0c0c0" stroke-width="1.51"/><path d="M766,-40L729,-84L639,-2Z" fill="#c4c4c4" stroke="#c4c4c4" stroke-width="1.51"/><path d="M639,-2L546,-54L629,36Z" fill="#cbcbcb" stroke="#cbcbcb" stroke-width="1.51"/><path d="M869,-106L729,-84L804,-50Z" fill="#bebebe" stroke="#bebebe" stroke-width="1.51"/><path d="M220,682L258,831L347,709Z" fill="#959595" stroke="#959595" stroke-width="1.51"/><path d="M220,682L181,819L258,831Z" fill="#939393" stroke="#939393" stroke-width="1.51"/><path d="M214,454L191,657L252,460Z" fill="#b1b1b1" stroke="#b1b1b1" stroke-width="1.51"/><path d="M918,-113L919,23L1023,-102Z" fill="#b1b1b1" stroke="#b1b1b1" stroke-width="1.51"/><path d="M1428,705L1494,585L1378,628Z" fill="#444444" stroke="#444444" stroke-width="1.51"/><path d="M1442,469L1482,401L1364,428Z" fill="#595959" stroke="#595959" stroke-width="1.51"/><path d="M1582,669L1494,585L1428,705Z" fill="#3d3d3d" stroke="#3d3d3d" stroke-width="1.51"/><path d="M1514,434L1482,401L1442,469Z" fill="#555555" stroke="#555555" stroke-width="1.51"/><path d="M1458,235L1385,125L1302,162Z" fill="#777777" stroke="#777777" stroke-width="1.51"/><path d="M1154,1060L1248,1071L1289,918Z" fill="#2b2b2b" stroke="#2b2b2b" stroke-width="1.51"/><path d="M1111,1169L1154,1060L1006,1111Z" fill="#303030" stroke="#303030" stroke-width="1.51"/><path d="M267,56L308,145L418,106Z" fill="#d8d8d8" stroke="#d8d8d8" stroke-width="1.51"/><path d="M418,106L308,145L424,193Z" fill="#d1d1d1" stroke="#d1d1d1" stroke-width="1.51"/><path d="M1023,-102L919,23L1049,-17Z" fill="#acacac" stroke="#acacac" stroke-width="1.51"/><path d="M570,-160L546,-54L639,-2Z" fill="#d0d0d0" stroke="#d0d0d0" stroke-width="1.51"/><path d="M214,454L120,652L191,657Z" fill="#ababab" stroke="#ababab" stroke-width="1.51"/><path d="M243,324L178,407L252,460Z" fill="#c0c0c0" stroke="#c0c0c0" stroke-width="1.51"/><path d="M113,296L178,407L243,324Z" fill="#c9c9c9" stroke="#c9c9c9" stroke-width="1.51"/><path d="M607,1089L520,1148L689,1091Z" fill="#525252" stroke="#525252" stroke-width="1.51"/><path d="M488,1033L520,1148L607,1089Z" fill="#575757" stroke="#575757" stroke-width="1.51"/><path d="M421,1172L520,1148L488,1033Z" fill="#5b5b5b" stroke="#5b5b5b" stroke-width="1.51"/><path d="M1153,-154L1023,-102L1091,-36Z" fill="#a7a7a7" stroke="#a7a7a7" stroke-width="1.51"/><path d="M1091,-36L1023,-102L1049,-17Z" fill="#a8a8a8" stroke="#a8a8a8" stroke-width="1.51"/><path d="M889,1174L1111,1169L1006,1111Z" fill="#363636" stroke="#363636" stroke-width="1.51"/><path d="M258,831L268,924L374,803Z" fill="#838383" stroke="#838383" stroke-width="1.51"/><path d="M181,819L268,924L258,831Z" fill="#858585" stroke="#858585" stroke-width="1.51"/><path d="M1458,235L1302,162L1395,321Z" fill="#717171" stroke="#717171" stroke-width="1.51"/><path d="M1494,585L1514,434L1442,469Z" fill="#4f4f4f" stroke="#4f4f4f" stroke-width="1.51"/><path d="M1302,162L1310,-27L1222,130Z" fill="#898989" stroke="#898989" stroke-width="1.51"/><path d="M1458,235L1395,321L1479,276Z" fill="#696969" stroke="#696969" stroke-width="1.51"/><path d="M314,1023L374,1067L428,918Z" fill="#6a6a6a" stroke="#6a6a6a" stroke-width="1.51"/><path d="M1479,276L1395,321L1482,401Z" fill="#636363" stroke="#636363" stroke-width="1.51"/><path d="M1547,320L1479,276L1482,401Z" fill="#5e5e5e" stroke="#5e5e5e" stroke-width="1.51"/><path d="M1464,907L1504,772L1389,785Z" fill="#2e2e2e" stroke="#2e2e2e" stroke-width="1.51"/><path d="M1643,347L1547,320L1514,434Z" fill="#555555" stroke="#555555" stroke-width="1.51"/><path d="M1464,907L1389,785L1337,951Z" fill="#2a2a2a" stroke="#2a2a2a" stroke-width="1.51"/><path d="M268,924L314,1023L428,918Z" fill="#717171" stroke="#717171" stroke-width="1.51"/><path d="M268,924L202,1019L314,1023Z" fill="#727272" stroke="#727272" stroke-width="1.51"/><path d="M120,652L181,819L220,682Z" fill="#9d9d9d" stroke="#9d9d9d" stroke-width="1.51"/><path d="M120,652L220,682L191,657Z" fill="#a3a3a3" stroke="#a3a3a3" stroke-width="1.51"/><path d="M1375,1032L1464,907L1337,951Z" fill="#212121" stroke="#212121" stroke-width="1.51"/><path d="M75,485L120,652L214,454Z" fill="#b4b4b4" stroke="#b4b4b4" stroke-width="1.51"/><path d="M1309,1100L1375,1032L1248,1071Z" fill="#1f1f1f" stroke="#1f1f1f" stroke-width="1.51"/><path d="M1248,1071L1375,1032L1337,951Z" fill="#232323" stroke="#232323" stroke-width="1.51"/><path d="M1212,1171L1309,1100L1248,1071Z" fill="#222222" stroke="#222222" stroke-width="1.51"/><path d="M1111,1169L1212,1171L1154,1060Z" fill="#2b2b2b" stroke="#2b2b2b" stroke-width="1.51"/><path d="M889,1174L1212,1171L1111,1169Z" fill="#313131" stroke="#313131" stroke-width="1.51"/><path d="M1310,-27L1227,-70L1222,130Z" fill="#919191" stroke="#919191" stroke-width="1.51"/><path d="M546,-54L369,-46L534,67Z" fill="#d6d6d6" stroke="#d6d6d6" stroke-width="1.51"/><path d="M570,-160L485,-109L546,-54Z" fill="#d7d7d7" stroke="#d7d7d7" stroke-width="1.51"/><path d="M570,-160L639,-2L729,-84Z" fill="#cccccc" stroke="#cccccc" stroke-width="1.51"/><path d="M570,-160L729,-84L869,-106Z" fill="#c6c6c6" stroke="#c6c6c6" stroke-width="1.51"/><path d="M1485,38L1310,-27L1385,125Z" fill="#7e7e7e" stroke="#7e7e7e" stroke-width="1.51"/><path d="M1385,125L1310,-27L1302,162Z" fill="#828282" stroke="#828282" stroke-width="1.51"/><path d="M1514,434L1547,320L1482,401Z" fill="#585858" stroke="#585858" stroke-width="1.51"/><path d="M1479,276L1595,149L1458,235Z" fill="#686868" stroke="#686868" stroke-width="1.51"/><path d="M1545,63L1485,38L1385,125Z" fill="#767676" stroke="#767676" stroke-width="1.51"/><path d="M1584,561L1514,434L1494,585Z" fill="#484848" stroke="#484848" stroke-width="1.51"/><path d="M1582,669L1584,561L1494,585Z" fill="#3e3e3e" stroke="#3e3e3e" stroke-width="1.51"/><path d="M1582,669L1428,705L1504,772Z" fill="#373737" stroke="#373737" stroke-width="1.51"/><path d="M374,1067L421,1172L488,1033Z" fill="#5e5e5e" stroke="#5e5e5e" stroke-width="1.51"/><path d="M520,1148L421,1172L889,1174Z" fill="#515151" stroke="#515151" stroke-width="1.51"/><path d="M265,1106L421,1172L374,1067Z" fill="#626262" stroke="#626262" stroke-width="1.51"/><path d="M308,145L149,211L243,324Z" fill="#d3d3d3" stroke="#d3d3d3" stroke-width="1.51"/><path d="M369,-46L267,56L418,106Z" fill="#dbdbdb" stroke="#dbdbdb" stroke-width="1.51"/><path d="M1689,797L1582,669L1504,772Z" fill="#2e2e2e" stroke="#2e2e2e" stroke-width="1.51"/><path d="M485,-109L369,-46L546,-54Z" fill="#dadada" stroke="#dadada" stroke-width="1.51"/><path d="M485,-109L439,-124L369,-46Z" fill="#dedede" stroke="#dedede" stroke-width="1.51"/><path d="M918,-113L570,-160L869,-106Z" fill="#c2c2c2" stroke="#c2c2c2" stroke-width="1.51"/><path d="M1153,-154L570,-160L918,-113Z" fill="#bababa" stroke="#bababa" stroke-width="1.51"/><path d="M178,407L75,485L214,454Z" fill="#bdbdbd" stroke="#bdbdbd" stroke-width="1.51"/><path d="M69,427L75,485L178,407Z" fill="#c1c1c1" stroke="#c1c1c1" stroke-width="1.51"/><path d="M162,90L149,211L308,145Z" fill="#dbdbdb" stroke="#dbdbdb" stroke-width="1.51"/><path d="M149,211L113,296L243,324Z" fill="#d2d2d2" stroke="#d2d2d2" stroke-width="1.51"/><path d="M1636,558L1603,472L1584,561Z" fill="#424242" stroke="#424242" stroke-width="1.51"/><path d="M1584,561L1603,472L1514,434Z" fill="#494949" stroke="#494949" stroke-width="1.51"/><path d="M1273,-120L1153,-154L1227,-70Z" fill="#9b9b9b" stroke="#9b9b9b" stroke-width="1.51"/><path d="M1227,-70L1153,-154L1091,-36Z" fill="#a1a1a1" stroke="#a1a1a1" stroke-width="1.51"/><path d="M1023,-102L1153,-154L918,-113Z" fill="#adadad" stroke="#adadad" stroke-width="1.51"/><path d="M113,296L69,427L178,407Z" fill="#c8c8c8" stroke="#c8c8c8" stroke-width="1.51"/><path d="M570,-160L439,-124L485,-109Z" fill="#dbdbdb" stroke="#dbdbdb" stroke-width="1.51"/><path d="M369,-46L321,-74L267,56Z" fill="#e1e1e1" stroke="#e1e1e1" stroke-width="1.51"/><path d="M314,1023L265,1106L374,1067Z" fill="#656565" stroke="#656565" stroke-width="1.51"/><path d="M181,819L158,950L268,924Z" fill="#808080" stroke="#808080" stroke-width="1.51"/><path d="M69,847L158,950L181,819Z" fill="#878787" stroke="#878787" stroke-width="1.51"/><path d="M40,753L181,819L120,652Z" fill="#9d9d9d" stroke="#9d9d9d" stroke-width="1.51"/><path d="M158,950L202,1019L268,924Z" fill="#767676" stroke="#767676" stroke-width="1.51"/><path d="M202,1019L265,1106L314,1023Z" fill="#6b6b6b" stroke="#6b6b6b" stroke-width="1.51"/><path d="M1310,-27L1273,-120L1227,-70Z" fill="#949494" stroke="#949494" stroke-width="1.51"/><path d="M1316,-168L1273,-120L1310,-27Z" fill="#919191" stroke="#919191" stroke-width="1.51"/><path d="M1582,669L1636,558L1584,561Z" fill="#3c3c3c" stroke="#3c3c3c" stroke-width="1.51"/><path d="M1595,149L1479,276L1547,320Z" fill="#636363" stroke="#636363" stroke-width="1.51"/><path d="M439,-124L321,-74L369,-46Z" fill="#e0e0e0" stroke="#e0e0e0" stroke-width="1.51"/><path d="M267,56L162,90L308,145Z" fill="#dddddd" stroke="#dddddd" stroke-width="1.51"/><path d="M-21,371L17,463L69,427Z" fill="#c7c7c7" stroke="#c7c7c7" stroke-width="1.51"/><path d="M-6,178L28,338L113,296Z" fill="#d8d8d8" stroke="#d8d8d8" stroke-width="1.51"/><path d="M155,15L162,90L267,56Z" fill="#e3e3e3" stroke="#e3e3e3" stroke-width="1.51"/><path d="M1464,907L1598,866L1504,772Z" fill="#262626" stroke="#262626" stroke-width="1.51"/><path d="M1697,669L1687,511L1636,558Z" fill="#3c3c3c" stroke="#3c3c3c" stroke-width="1.51"/><path d="M1504,1022L1537,968L1464,907Z" fill="#191919" stroke="#191919" stroke-width="1.51"/><path d="M1504,1022L1464,907L1375,1032Z" fill="#1b1b1b" stroke="#1b1b1b" stroke-width="1.51"/><path d="M1504,1022L1375,1032L1482,1084Z" fill="#161616" stroke="#161616" stroke-width="1.51"/><path d="M1482,1084L1375,1032L1309,1100Z" fill="#171717" stroke="#171717" stroke-width="1.51"/><path d="M25,753L40,753L120,652Z" fill="#a2a2a2" stroke="#a2a2a2" stroke-width="1.51"/><path d="M-27,584L120,652L75,485Z" fill="#b3b3b3" stroke="#b3b3b3" stroke-width="1.51"/><path d="M202,1019L180,1181L265,1106Z" fill="#696969" stroke="#696969" stroke-width="1.51"/><path d="M158,950L74,1074L202,1019Z" fill="#747474" stroke="#747474" stroke-width="1.51"/><path d="M40,753L69,847L181,819Z" fill="#949494" stroke="#949494" stroke-width="1.51"/><path d="M69,427L17,463L75,485Z" fill="#c1c1c1" stroke="#c1c1c1" stroke-width="1.51"/><path d="M28,338L69,427L113,296Z" fill="#cecece" stroke="#cecece" stroke-width="1.51"/><path d="M1537,968L1598,866L1464,907Z" fill="#1d1d1d" stroke="#1d1d1d" stroke-width="1.51"/><path d="M1545,63L1385,125L1458,235Z" fill="#727272" stroke="#727272" stroke-width="1.51"/><path d="M1643,347L1514,434L1603,472Z" fill="#4f4f4f" stroke="#4f4f4f" stroke-width="1.51"/><path d="M1687,511L1643,347L1603,472Z" fill="#4a4a4a" stroke="#4a4a4a" stroke-width="1.51"/><path d="M-6,178L113,296L149,211Z" fill="#dadada" stroke="#dadada" stroke-width="1.51"/><path d="M40,753L25,753L69,847Z" fill="#9a9a9a" stroke="#9a9a9a" stroke-width="1.51"/><path d="M-27,584L25,753L120,652Z" fill="#a9a9a9" stroke="#a9a9a9" stroke-width="1.51"/><path d="M1537,968L1567,1020L1598,866Z" fill="#171717" stroke="#171717" stroke-width="1.51"/><path d="M1504,1022L1567,1020L1537,968Z" fill="#141414" stroke="#141414" stroke-width="1.51"/><path d="M1543,1140L1482,1084L1309,1100Z" fill="#121212" stroke="#121212" stroke-width="1.51"/><path d="M162,90L102,137L149,211Z" fill="#dfdfdf" stroke="#dfdfdf" stroke-width="1.51"/><path d="M87,107L102,137L162,90Z" fill="#e2e2e2" stroke="#e2e2e2" stroke-width="1.51"/><path d="M1697,669L1636,558L1582,669Z" fill="#373737" stroke="#373737" stroke-width="1.51"/><path d="M1636,558L1687,511L1603,472Z" fill="#434343" stroke="#434343" stroke-width="1.51"/><path d="M1687,511L1651,294L1643,347Z" fill="#505050" stroke="#505050" stroke-width="1.51"/><path d="M1643,347L1651,294L1547,320Z" fill="#575757" stroke="#575757" stroke-width="1.51"/><path d="M1651,294L1595,149L1547,320Z" fill="#5f5f5f" stroke="#5f5f5f" stroke-width="1.51"/><path d="M1595,149L1545,63L1458,235Z" fill="#6c6c6c" stroke="#6c6c6c" stroke-width="1.51"/><path d="M1465,-85L1316,-168L1310,-27Z" fill="#898989" stroke="#898989" stroke-width="1.51"/><path d="M1273,-120L1316,-168L1153,-154Z" fill="#999999" stroke="#999999" stroke-width="1.51"/><path d="M1153,-154L1316,-168L570,-160Z" fill="#b0b0b0" stroke="#b0b0b0" stroke-width="1.51"/><path d="M1475,-35L1310,-27L1485,38Z" fill="#808080" stroke="#808080" stroke-width="1.51"/><path d="M-87,543L-27,584L17,463Z" fill="#bbbbbb" stroke="#bbbbbb" stroke-width="1.51"/><path d="M17,463L-27,584L75,485Z" fill="#bcbcbc" stroke="#bcbcbc" stroke-width="1.51"/><path d="M321,-74L155,15L267,56Z" fill="#e4e4e4" stroke="#e4e4e4" stroke-width="1.51"/><path d="M1535,3L1475,-35L1485,38Z" fill="#787878" stroke="#787878" stroke-width="1.51"/><path d="M69,847L55,925L158,950Z" fill="#838383" stroke="#838383" stroke-width="1.51"/><path d="M14,919L55,925L69,847Z" fill="#878787" stroke="#878787" stroke-width="1.51"/><path d="M14,919L69,847L-64,832Z" fill="#8e8e8e" stroke="#8e8e8e" stroke-width="1.51"/><path d="M1689,797L1697,669L1582,669Z" fill="#303030" stroke="#303030" stroke-width="1.51"/><path d="M1598,866L1689,797L1504,772Z" fill="#262626" stroke="#262626" stroke-width="1.51"/><path d="M1482,1084L1567,1020L1504,1022Z" fill="#111111" stroke="#111111" stroke-width="1.51"/><path d="M155,15L87,107L162,90Z" fill="#e4e4e4" stroke="#e4e4e4" stroke-width="1.51"/><path d="M102,137L-6,178L149,211Z" fill="#dfdfdf" stroke="#dfdfdf" stroke-width="1.51"/><path d="M28,338L-21,371L69,427Z" fill="#cccccc" stroke="#cccccc" stroke-width="1.51"/><path d="M-122,332L-21,371L28,338Z" fill="#d2d2d2" stroke="#d2d2d2" stroke-width="1.51"/><path d="M1545,63L1535,3L1485,38Z" fill="#747474" stroke="#747474" stroke-width="1.51"/><path d="M1475,-35L1465,-85L1310,-27Z" fill="#818181" stroke="#818181" stroke-width="1.51"/><path d="M1644,74L1535,3L1545,63Z" fill="#6f6f6f" stroke="#6f6f6f" stroke-width="1.51"/><path d="M1699,876L1689,797L1598,866Z" fill="#202020" stroke="#202020" stroke-width="1.51"/><path d="M1603,-98L1465,-85L1475,-35Z" fill="#7b7b7b" stroke="#7b7b7b" stroke-width="1.51"/><path d="M1687,511L1659,191L1651,294Z" fill="#565656" stroke="#565656" stroke-width="1.51"/><path d="M1651,294L1659,191L1595,149Z" fill="#606060" stroke="#606060" stroke-width="1.51"/><path d="M1595,149L1644,74L1545,63Z" fill="#6b6b6b" stroke="#6b6b6b" stroke-width="1.51"/><path d="M74,1074L180,1181L202,1019Z" fill="#6c6c6c" stroke="#6c6c6c" stroke-width="1.51"/><path d="M-64,832L69,847L25,753Z" fill="#979797" stroke="#979797" stroke-width="1.51"/><path d="M74,1074L158,950L55,925Z" fill="#7a7a7a" stroke="#7a7a7a" stroke-width="1.51"/><path d="M265,1106L180,1181L421,1172Z" fill="#666666" stroke="#666666" stroke-width="1.51"/><path d="M421,1172L180,1181L889,1174Z" fill="#5a5a5a" stroke="#5a5a5a" stroke-width="1.51"/><path d="M889,1174L1635,1180L1212,1171Z" fill="#242424" stroke="#242424" stroke-width="1.51"/><path d="M87,107L-6,178L102,137Z" fill="#e3e3e3" stroke="#e3e3e3" stroke-width="1.51"/><path d="M-18,114L-6,178L87,107Z" fill="#e5e5e5" stroke="#e5e5e5" stroke-width="1.51"/><path d="M1567,1020L1699,876L1598,866Z" fill="#171717" stroke="#171717" stroke-width="1.51"/><path d="M1482,1084L1543,1140L1567,1020Z" fill="#0a0a0a" stroke="#0a0a0a" stroke-width="1.51"/><path d="M1212,1171L1543,1140L1309,1100Z" fill="#191919" stroke="#191919" stroke-width="1.51"/><path d="M1638,1057L1699,876L1567,1020Z" fill="#101010" stroke="#101010" stroke-width="1.51"/><path d="M1689,797L1699,876L1697,669Z" fill="#292929" stroke="#292929" stroke-width="1.51"/><path d="M-100,419L-87,543L17,463Z" fill="#c2c2c2" stroke="#c2c2c2" stroke-width="1.51"/><path d="M-109,797L-64,832L25,753Z" fill="#9c9c9c" stroke="#9c9c9c" stroke-width="1.51"/><path d="M-100,419L17,463L-21,371Z" fill="#c9c9c9" stroke="#c9c9c9" stroke-width="1.51"/><path d="M6,1071L74,1074L55,925Z" fill="#777777" stroke="#777777" stroke-width="1.51"/><path d="M321,-74L168,-146L155,15Z" fill="#e9e9e9" stroke="#e9e9e9" stroke-width="1.51"/><path d="M47,-45L-18,114L87,107Z" fill="#eaeaea" stroke="#eaeaea" stroke-width="1.51"/><path d="M439,-124L249,-168L321,-74Z" fill="#e5e5e5" stroke="#e5e5e5" stroke-width="1.51"/><path d="M570,-160L249,-168L439,-124Z" fill="#e1e1e1" stroke="#e1e1e1" stroke-width="1.51"/><path d="M1316,-168L249,-168L570,-160Z" fill="#c9c9c9" stroke="#c9c9c9" stroke-width="1.51"/><path d="M1659,191L1644,74L1595,149Z" fill="#666666" stroke="#666666" stroke-width="1.51"/><path d="M1535,3L1603,-98L1475,-35Z" fill="#787878" stroke="#787878" stroke-width="1.51"/><path d="M-118,651L25,753L-27,584Z" fill="#acacac" stroke="#acacac" stroke-width="1.51"/><path d="M6,1071L72,1132L74,1074Z" fill="#707070" stroke="#707070" stroke-width="1.51"/><path d="M-87,543L-118,651L-27,584Z" fill="#b5b5b5" stroke="#b5b5b5" stroke-width="1.51"/><path d="M-122,332L-100,419L-21,371Z" fill="#d0d0d0" stroke="#d0d0d0" stroke-width="1.51"/><path d="M1543,1140L1638,1057L1567,1020Z" fill="#050605" stroke="#050605" stroke-width="1.51"/><path d="M-6,178L-122,332L28,338Z" fill="#dadada" stroke="#dadada" stroke-width="1.51"/><path d="M47,-45L87,107L155,15Z" fill="#eaeaea" stroke="#eaeaea" stroke-width="1.51"/><path d="M-167,665L-118,651L-87,543Z" fill="#b3b3b3" stroke="#b3b3b3" stroke-width="1.51"/><path d="M6,1071L55,925L14,919Z" fill="#7e7e7e" stroke="#7e7e7e" stroke-width="1.51"/><path d="M74,1074L72,1132L180,1181Z" fill="#6e6e6e" stroke="#6e6e6e" stroke-width="1.51"/><path d="M249,-168L168,-146L321,-74Z" fill="#ebebeb" stroke="#ebebeb" stroke-width="1.51"/><path d="M-106,1050L6,1071L14,919Z" fill="#7b7b7b" stroke="#7b7b7b" stroke-width="1.51"/><path d="M-118,651L-109,797L25,753Z" fill="#a5a5a5" stroke="#a5a5a5" stroke-width="1.51"/><path d="M-170,880L14,919L-64,832Z" fill="#8e8e8e" stroke="#8e8e8e" stroke-width="1.51"/><path d="M-100,419L-167,665L-87,543Z" fill="#bcbcbc" stroke="#bcbcbc" stroke-width="1.51"/><path d="M-137,195L-122,332L-6,178Z" fill="#e0e0e0" stroke="#e0e0e0" stroke-width="1.51"/><path d="M-97,92L-137,195L-6,178Z" fill="#e7e7e7" stroke="#e7e7e7" stroke-width="1.51"/><path d="M168,-146L47,-45L155,15Z" fill="#ededed" stroke="#ededed" stroke-width="1.51"/><path d="M1659,191L1632,-49L1644,74Z" fill="#6a6a6a" stroke="#6a6a6a" stroke-width="1.51"/><path d="M1644,74L1632,-49L1535,3Z" fill="#6f6f6f" stroke="#6f6f6f" stroke-width="1.51"/><path d="M1465,-85L1619,-126L1316,-168Z" fill="#818181" stroke="#818181" stroke-width="1.51"/><path d="M1632,-49L1603,-98L1535,3Z" fill="#737373" stroke="#737373" stroke-width="1.51"/><path d="M-106,1050L-5,1120L6,1071Z" fill="#737373" stroke="#737373" stroke-width="1.51"/><path d="M-118,651L-167,665L-109,797Z" fill="#aaaaaa" stroke="#aaaaaa" stroke-width="1.51"/><path d="M-122,332L-167,665L-100,419Z" fill="#c5c5c5" stroke="#c5c5c5" stroke-width="1.51"/><path d="M6,1071L-5,1120L72,1132Z" fill="#717171" stroke="#717171" stroke-width="1.51"/><path d="M72,1132L-5,1120L180,1181Z" fill="#6f6f6f" stroke="#6f6f6f" stroke-width="1.51"/><path d="M-170,880L-64,832L-109,797Z" fill="#969696" stroke="#969696" stroke-width="1.51"/><path d="M1543,1140L1635,1180L1638,1057Z" fill="#010101" stroke="#010101" stroke-width="1.51"/><path d="M1638,1057L1635,1180L1699,876Z" fill="#070707" stroke="#070707" stroke-width="1.51"/><path d="M1212,1171L1635,1180L1543,1140Z" fill="#111111" stroke="#111111" stroke-width="1.51"/><path d="M180,1181L1635,1180L889,1174Z" fill="#3c3c3c" stroke="#3c3c3c" stroke-width="1.51"/><path d="M-97,92L-6,178L-18,114Z" fill="#e8e8e8" stroke="#e8e8e8" stroke-width="1.51"/><path d="M168,-146L67,-137L47,-45Z" fill="#f1f1f1" stroke="#f1f1f1" stroke-width="1.51"/><path d="M-30,-173L67,-137L168,-146Z" fill="#f5f5f5" stroke="#f5f5f5" stroke-width="1.51"/><path d="M1632,-49L1619,-126L1603,-98Z" fill="#737373" stroke="#737373" stroke-width="1.51"/><path d="M1603,-98L1619,-126L1465,-85Z" fill="#787878" stroke="#787878" stroke-width="1.51"/><path d="M-97,92L-18,114L-42,-25Z" fill="#ededed" stroke="#ededed" stroke-width="1.51"/><path d="M-122,332L-137,195L-167,665Z" fill="#cfcfcf" stroke="#cfcfcf" stroke-width="1.51"/><path d="M-42,-25L-18,114L47,-45Z" fill="#efefef" stroke="#efefef" stroke-width="1.51"/><path d="M-30,-173L-42,-25L47,-45Z" fill="#f4f4f4" stroke="#f4f4f4" stroke-width="1.51"/><path d="M-167,665L-170,880L-109,797Z" fill="#a0a0a0" stroke="#a0a0a0" stroke-width="1.51"/><path d="M-170,880L-106,1050L14,919Z" fill="#848484" stroke="#848484" stroke-width="1.51"/><path d="M67,-137L-30,-173L47,-45Z" fill="#f5f5f5" stroke="#f5f5f5" stroke-width="1.51"/><path d="M-42,-25L-164,1L-97,92Z" fill="#f1f1f1" stroke="#f1f1f1" stroke-width="1.51"/><path d="M-97,92L-164,1L-137,195Z" fill="#ededed" stroke="#ededed" stroke-width="1.51"/><path d="M249,-168L-30,-173L168,-146Z" fill="#f2f2f2" stroke="#f2f2f2" stroke-width="1.51"/><path d="M1316,-168L-30,-173L249,-168Z" fill="#dcdcdc" stroke="#dcdcdc" stroke-width="1.51"/><path d="M-123,-118L-164,1L-42,-25Z" fill="#f6f6f6" stroke="#f6f6f6" stroke-width="1.51"/><path d="M-137,195L-164,1L-167,665Z" fill="#dedede" stroke="#dedede" stroke-width="1.51"/><path d="M-167,665L-164,1L-170,880Z" fill="#c1c1c1" stroke="#c1c1c1" stroke-width="1.51"/><path d="M-106,1050L-157,1132L-5,1120Z" fill="#747474" stroke="#747474" stroke-width="1.51"/><path d="M-5,1120L-157,1132L180,1181Z" fill="#727272" stroke="#727272" stroke-width="1.51"/><path d="M-170,880L-157,1132L-106,1050Z" fill="#7d7d7d" stroke="#7d7d7d" stroke-width="1.51"/><path d="M-30,-173L-123,-118L-42,-25Z" fill="#f8f8f8" stroke="#f8f8f8" stroke-width="1.51"/></svg>